<svg width="192" height="218" viewBox="0 0 192 218" fill="none" xmlns="http://www.w3.org/2000/svg">
<path d="M36.4066 102.556C34.8769 101.511 33.1513 100.989 31.2299 100.989C29.3271 100.989 27.7694 101.493 26.5568 102.5C25.3442 103.489 24.7379 104.888 24.7379 106.698C24.7379 108.488 25.6427 110.074 27.4522 111.455C28.5342 112.294 30.7448 113.432 34.0841 114.868C37.4233 116.305 39.7459 117.629 41.0517 118.842C43.5515 121.155 44.8014 123.562 44.8014 126.061V127.069C44.8014 130.166 43.5702 132.684 41.1077 134.624C39.9697 135.52 38.552 136.238 36.8544 136.779C35.1568 137.301 33.4591 137.562 31.7615 137.562H30.7262C26.8832 137.562 23.516 136.984 20.6245 135.827C19.3186 135.305 18.6657 133.878 18.6657 131.546V130.567C18.6657 127.806 19.1414 126.425 20.0928 126.425C20.7457 126.425 21.6319 127.311 22.7512 129.084C23.8705 130.856 25.1577 132.19 26.6128 133.085C28.0865 133.981 29.8587 134.428 31.9294 134.428C34.0001 134.428 35.6698 133.887 36.9383 132.805C38.2069 131.705 38.8411 130.352 38.8411 128.748C38.8411 126.547 37.8151 124.69 35.763 123.179C34.8863 122.545 32.685 121.416 29.1592 119.793C25.6334 118.152 23.1896 116.622 21.8277 115.204C19.9622 113.264 19.0295 110.895 19.0295 108.097C19.0295 105.298 20.0275 102.976 22.0236 101.129C23.1243 100.103 24.4954 99.3102 26.137 98.7505C27.7787 98.1722 29.4576 97.8831 31.1739 97.8831H32.2093C32.9181 97.8831 33.9255 98.0043 35.2314 98.2468L36.2108 98.4427C37.3674 98.6666 37.9923 98.7878 38.0856 98.8065L38.9531 98.8624L39.7925 98.8904C40.576 98.9464 41.1264 99.0397 41.4435 99.1703C42.5441 99.618 43.0945 101.176 43.0945 103.843C43.0945 106.511 42.5721 107.845 41.5274 107.845C41.0051 107.845 40.2216 107.099 39.1769 105.606C38.1322 104.114 37.2088 103.097 36.4066 102.556Z" fill="url(#paint0_linear_12_505)"/>
<path d="M71.3288 120.661V120.493C71.3288 118.739 69.8271 114.355 66.8237 107.341C66.3013 106.129 66.0308 105.522 66.0122 105.522L65.2007 107.397C62.1039 114.617 60.5556 119.001 60.5556 120.549C60.5556 120.81 60.7141 120.95 61.0313 120.969C61.3671 120.987 61.6189 120.997 61.7868 120.997L63.9694 121.053H65.9562L66.1521 121.025C69.6033 121.025 71.3288 120.903 71.3288 120.661ZM47.9914 135.576C47.9914 135.109 48.5231 134.568 49.5864 133.953C50.6498 133.337 51.4333 132.553 51.937 131.602C52.4406 130.651 53.1495 128.934 54.0636 126.453C54.9777 123.953 56.2183 120.81 57.7853 117.023C59.371 113.236 60.6209 109.841 61.535 106.837C62.4677 103.815 63.102 101.903 63.4378 101.101C64.2026 99.2729 65.2846 98.3588 66.6837 98.3588H67.4673C67.8217 98.3588 68.2601 98.5546 68.7824 98.9464C69.8458 99.7486 70.9557 101.465 72.1124 104.095C72.5041 104.991 73.0917 106.53 73.8753 108.712C74.6588 110.876 76.2258 115.12 78.5763 121.444C80.9269 127.768 82.242 131.21 82.5219 131.77C82.9882 132.74 83.7811 133.523 84.9004 134.12C86.0197 134.699 86.5793 135.165 86.5793 135.52C86.5793 136.303 86.113 136.788 85.1802 136.975C84.5459 137.105 82.9416 137.171 80.3672 137.171L78.7442 137.199C75.293 137.199 73.5675 136.732 73.5675 135.799C73.5675 135.632 73.782 135.23 74.2111 134.596C74.6588 133.962 74.8826 133.16 74.8826 132.19C74.8826 131.22 74.5282 129.83 73.8193 128.02C73.1291 126.211 72.5414 125.091 72.0564 124.662C71.59 124.233 69.5659 124.019 65.9842 124.019C62.4024 124.019 60.3131 124.215 59.7161 124.606C59.1191 124.998 58.4755 126.052 57.7853 127.768C57.0951 129.485 56.7499 130.884 56.7499 131.966C56.7499 133.029 57.0764 133.971 57.7293 134.792C58.4009 135.613 58.7367 136.042 58.7367 136.079C58.7367 136.751 57.5894 137.087 55.2949 137.087C53.0189 137.087 51.2281 137.003 49.9222 136.835C48.635 136.648 47.9914 136.228 47.9914 135.576Z" fill="url(#paint1_linear_12_505)"/>
<path d="M109.413 98.023C114.748 98.023 118.591 98.4614 120.942 99.3381C121.464 99.5247 121.968 99.9631 122.453 100.653C122.938 101.344 123.18 102.537 123.18 104.235C123.18 105.933 122.873 107.043 122.257 107.565L121.697 107.873C121.194 107.873 120.364 107.22 119.207 105.914C116.521 102.929 113.293 101.437 109.525 101.437C105.775 101.437 102.772 102.901 100.515 105.83C98.276 108.759 97.1567 112.658 97.1567 117.527C97.1567 122.377 98.332 126.332 100.683 129.391C103.033 132.469 106.12 134.009 109.945 134.009C112.426 134.009 114.226 133.486 115.345 132.441C116.465 131.397 117.024 129.326 117.024 126.229C117.024 125.035 116.745 123.991 116.185 123.095C116.036 122.853 115.663 122.452 115.066 121.892C114.487 121.314 114.198 120.95 114.198 120.801C114.198 119.999 116.036 119.598 119.711 119.598C122.061 119.598 123.619 119.728 124.384 119.989C125.149 120.232 125.531 120.698 125.531 121.388C125.531 121.519 125.289 121.948 124.803 122.676C124.318 123.384 124.039 123.86 123.964 124.103C123.889 124.345 123.731 125.95 123.488 128.916C123.264 131.863 122.938 133.635 122.509 134.232C122.099 134.829 121.063 135.38 119.403 135.883C115.168 137.189 112.043 137.842 110.029 137.842H108.909C106.298 137.842 103.835 137.394 101.522 136.499C99.2088 135.585 97.2407 134.316 95.6177 132.693C93.9947 131.07 92.6889 128.981 91.7001 126.425C90.7114 123.87 90.2171 121.248 90.2171 118.562V117.359C90.2171 114.729 90.7394 112.126 91.7841 109.552C93.7429 104.739 97.0075 101.409 101.578 99.562C104.115 98.536 106.727 98.023 109.413 98.023Z" fill="url(#paint2_linear_12_505)"/>
<path d="M155.053 98.2748C158.392 98.2748 160.061 100.15 160.061 103.899C160.061 104.888 159.847 105.382 159.418 105.382C159.175 105.382 158.597 105.112 157.683 104.571C156.788 104.011 156.041 103.629 155.444 103.424C152.795 102.51 150.445 102.052 148.393 102.052C146.341 102.052 144.932 102.556 144.167 103.564C143.104 104.963 142.572 107.537 142.572 111.287C142.572 112.63 143.029 113.628 143.944 114.281C144.858 114.934 145.902 115.26 147.078 115.26C148.271 115.26 149.475 114.859 150.687 114.057C151.919 113.236 152.544 112.826 152.562 112.826C153.495 112.826 154.129 113.19 154.465 113.917C154.819 114.645 154.997 115.829 154.997 117.471C154.997 120.362 154.334 121.808 153.01 121.808C152.655 121.808 151.919 121.36 150.799 120.465C149.68 119.551 148.495 119.094 147.245 119.094C145.1 119.094 143.673 119.551 142.964 120.465C142.498 121.062 142.265 122.853 142.265 125.838C142.265 128.822 142.796 131.005 143.86 132.386C144.457 133.15 145.884 133.533 148.141 133.533C150.398 133.533 153.029 133.048 156.032 132.078C156.871 131.817 157.543 131.509 158.047 131.154C158.55 130.8 159.063 130.427 159.586 130.035C160.108 129.625 160.435 129.419 160.565 129.419C161.199 129.419 161.517 129.737 161.517 130.371V131.266C161.517 132.703 161.265 133.887 160.761 134.82C160.276 135.734 159.828 136.322 159.418 136.583C158.653 137.068 155.612 137.31 150.296 137.31H146.602L145.371 137.282C138.338 137.282 134.28 137.208 133.198 137.059C132.116 136.891 131.575 136.471 131.575 135.799C131.575 135.37 132.079 134.829 133.086 134.176C134.094 133.523 134.747 132.703 135.045 131.714C135.344 130.725 135.493 126.854 135.493 120.101L135.605 109.16C135.605 105.578 135.381 103.358 134.933 102.5C134.728 102.108 134.15 101.661 133.198 101.157C132.247 100.653 131.771 100.206 131.771 99.8139C131.771 99.0677 132.377 98.6013 133.59 98.4147C134.094 98.3401 138.058 98.3028 145.483 98.3028L153.877 98.2748H155.053Z" fill="url(#paint3_linear_12_505)"/>
<path fill-rule="evenodd" clip-rule="evenodd" d="M191.559 86.9307H0.292419V85.8562H191.559V86.9307Z" fill="white"/>
<path fill-rule="evenodd" clip-rule="evenodd" d="M191.559 149.97H0.292419V148.895H191.559V149.97Z" fill="white"/>
<mask id="mask0_12_505" style="mask-type:alpha" maskUnits="userSpaceOnUse" x="2" y="0" width="188" height="218">
<rect x="2.86542" y="0.830811" width="186.252" height="85.246" fill="#D9D9D9"/>
<rect x="2.86542" y="149.116" width="186.252" height="68.0535" fill="#D9D9D9"/>
</mask>
<g mask="url(#mask0_12_505)">
<path d="M119.93 172.887C123.402 170.091 127.462 168.185 131.427 166.211C132.395 165.611 133.645 164.676 133.952 163.526C134.071 163.086 133.727 162.464 133.36 162.206C131.57 160.942 129.342 160.337 127.183 159.882C126.742 159.786 126.006 159.694 125.562 159.627C122.304 159.126 119.629 156.867 116.433 156.077C115.991 155.969 115.949 155.731 116.343 155.504C127.757 148.938 138.402 141.144 149.779 134.511C150.176 134.282 150.782 133.864 151.144 133.592C153.533 131.804 156.237 130.396 158.458 128.446C158.802 128.145 159.12 127.519 159.066 127.064C158.8 124.889 156.177 125.113 154.223 124.683C153.779 124.59 153.065 124.406 152.609 124.406C151.321 124.404 150.013 124.722 148.724 124.568C148.272 124.512 148.136 124.101 148.422 123.748C151.75 119.616 156.748 116.88 159.262 112.002C160.969 107.705 164.014 104.036 165.039 99.4874C165.133 99.0413 165.322 98.3302 165.501 97.9132C167.239 93.8057 170.084 90.1461 170.783 85.6555C170.854 85.2028 170.968 84.4745 171.086 84.0355C171.561 82.3177 172.254 80.3878 171.463 78.7917C171.264 78.3881 170.662 77.9779 170.204 77.9287C167.849 77.6699 165.925 79.8691 163.594 80.2707C163.141 80.3441 162.431 80.4754 162.015 80.653C158.505 82.1142 154.864 83.2739 151.396 84.8464C150.98 85.0372 150.907 84.9286 151.211 84.591C155.032 80.3582 157.406 75.0508 160.655 70.3816C160.912 70.0029 161.284 69.3697 161.479 68.9582C163.918 63.8719 167.255 59.1762 168.774 53.6909C169.2 52.3703 168.356 50.4976 166.728 51.1114C163.858 52.0342 160.958 52.9568 158.132 54.0662C157.709 54.2311 157.534 54.0399 157.724 53.6269C161.728 45.2167 164.226 36.0486 165.17 26.7594C165.219 26.3058 165.2 25.5738 165.104 25.1288C164.243 21.0494 161.587 17.5573 160.493 13.5279C160.206 12.6802 159.948 11.6022 159.222 11.0402C158.858 10.7649 158.079 10.6666 157.683 10.8812C156.436 11.5581 156.788 14.0154 156.517 15.3201C155.594 18.4924 156.355 22.7179 152.906 24.5301C147.102 28.2155 140.636 30.8815 135.232 35.2232C134.88 35.5122 134.537 35.382 134.468 34.9343C134.154 32.819 133.906 30.6465 132.72 28.8158C131.05 25.9964 131.505 21.8568 128.851 19.7209C128.496 19.436 127.808 19.3399 127.394 19.5289C125.674 20.3228 124.707 22.1577 123.537 23.6445C123.26 24.0012 122.804 24.5831 122.552 24.9616C119.323 29.8351 115.75 34.5182 111.914 38.9222C109.119 42.8069 108.349 47.7111 105.567 51.5935C104.143 53.6244 103.225 55.9284 102.426 58.2596C102.275 58.6887 102.151 58.6711 102.149 58.2146C102.138 55.5536 102.342 52.9013 102.887 50.2912C103.371 47.821 102.293 43.4673 99.3553 43.691C98.9017 43.7252 98.2559 44.074 97.8927 44.3503C93.7233 47.5213 89.7134 50.9547 85.7664 54.4074C85.4253 54.7072 84.9096 55.2328 84.6163 55.5823C78.7453 62.5906 73.267 69.9133 67.6635 77.1374C67.3856 77.4985 67.1883 77.4221 67.225 76.9708C67.5124 73.4774 67.7466 69.9312 66.8693 66.4941C64.4735 59.3611 63.0852 51.955 60.5461 44.8883C59.9849 43.0111 59.9475 40.0936 57.9252 39.3318C57.4963 39.1743 56.8655 39.4276 56.5709 39.7723C54.0211 42.783 52.6217 46.6198 50.6061 49.9937C50.3705 50.3848 49.9092 50.9526 49.604 51.2882C45.4485 55.8673 44.8346 62.3464 41.9316 67.6369C41.7146 68.0431 41.391 68.6956 41.2299 69.1255C38.7447 75.8337 37.0719 82.8884 36.5728 90.0342C34.2966 103.647 33.7523 117.759 36.592 131.332C38.3449 139.275 37.9831 147.469 38.8264 155.521C38.8714 155.972 38.8559 156.703 38.763 157.148C37.443 163.708 33.8471 169.672 30.1559 175.197C29.9051 175.574 29.3827 176.071 29.0457 176.381C27.1196 178.124 27.1046 181.03 25.2921 182.84C24.9703 183.163 24.4351 183.66 24.1472 184.009C20.786 188.088 16.6669 191.47 13.2756 195.525C11.0369 198.481 12.3895 202.246 12.4944 205.59C12.4862 206.039 12.6767 206.696 13.0517 206.969C13.4195 207.244 14.1116 206.748 14.4498 206.45C18.1777 203.154 21.2884 199.204 24.875 195.801C25.2055 195.484 25.82 195.097 26.2372 194.928C31.6242 192.721 36.9824 190.299 42.101 187.492C47.8652 184.649 54.1229 183.028 60.2396 181.125C60.6743 180.99 61.3926 180.929 61.836 181.024C64.4116 181.57 66.8118 182.751 69.1692 183.917C69.5708 184.117 70.2584 184.375 70.7054 184.477C74.571 185.38 78.718 185.462 82.53 184.294C82.9695 184.162 83.6747 183.948 84.1159 183.851C88.1652 183.024 92.3858 182.996 96.2727 181.472C104.239 178.863 112.946 177.905 119.93 172.887ZM155.029 129.518C155.466 129.414 155.505 129.504 155.125 129.75C152.624 131.415 149.552 134.029 146.474 135.522C146.064 135.718 145.931 135.56 146.237 135.22C147.056 134.304 148.045 133.547 148.838 132.627C149.139 132.28 148.972 132.001 148.544 132.156C146.671 132.838 145.458 135.16 144.051 136.752C143.746 137.091 143.168 137.547 142.793 137.799C137.84 141.105 132.662 144.067 127.654 147.291C127.269 147.531 127.11 147.395 127.309 146.991C129.859 141.784 134.185 137.717 139.035 134.625C139.414 134.379 139.367 134.275 138.945 134.423C133.643 136.163 129.646 141.257 126.871 146.107C126.648 146.506 126.352 147.179 126.115 147.569C124.731 149.862 121.618 150.144 119.43 151.589C119.053 151.843 118.433 152.227 118.017 152.405C114.122 154.119 110.639 156.66 106.702 158.263C106.274 158.431 106.119 158.239 106.353 157.852C111.314 149.764 117.887 142.623 125.996 137.645C126.379 137.407 126.354 137.35 125.932 137.524C116.535 141.409 110.435 150.478 104.874 158.667C104.62 159.042 104.073 159.495 103.65 159.67C98.9578 161.643 94.1593 163.372 89.5262 165.523C89.1118 165.712 88.969 165.554 89.2044 165.166C95.3356 155.184 104.132 147.116 113.488 140.193C113.858 139.921 113.783 139.712 113.348 139.852C112.28 140.199 111.442 141.09 110.504 141.703C101.591 147.911 93.8854 155.845 88.2627 165.142C88.0263 165.531 87.5464 166.076 87.1725 166.327C82.8882 169.3 77.809 170.951 72.9261 172.778C72.5033 172.94 72.357 172.761 72.619 172.389C77.8103 164.753 84.9599 158.632 91.8943 152.616C92.2405 152.325 92.1779 152.228 91.7768 152.438C86.6086 155.066 82.9446 159.861 78.6663 163.66C75.599 166.52 73.2359 169.995 70.7599 173.346C70.4936 173.711 69.944 174.184 69.542 174.387C65.4976 176.435 61.0265 177.542 56.6554 178.685C56.2122 178.799 55.921 178.531 56.0476 178.09C57.6608 172.269 63.5081 169.094 67.7579 165.142C68.0904 164.835 68.6543 164.363 69.0268 164.106C77.1203 158.494 85.6571 153.532 93.688 147.819C94.0504 147.558 94.6253 147.093 94.969 146.792C101.979 140.715 111.202 138.136 120.101 136.193C120.55 136.099 121.25 135.878 121.678 135.723C127.992 133.439 134.827 133.609 141.319 132.154C141.756 132.051 142.435 131.782 142.851 131.592C146.647 129.842 151.012 130.456 155.029 129.518ZM48.0751 176.152C47.6607 176.334 47.6064 176.234 47.9754 175.964C56.3059 169.847 64.4237 163.46 72.5923 157.12C72.9502 156.841 73.0795 156.949 72.8882 157.361C72.5 158.181 71.954 159.383 71.477 160.366C71.2786 160.775 70.8194 161.334 70.4621 161.616C67.9383 163.613 65.3629 165.585 63.0292 167.821C62.703 168.137 62.1297 168.602 61.7138 168.792C60.1102 169.522 58.1946 169.663 56.74 170.662C56.359 170.921 56.4738 171.203 56.9249 171.138C57.7446 171.02 58.5312 170.711 59.3354 170.493C59.7731 170.372 59.8466 170.542 59.5442 170.882C58.7662 171.758 57.9408 172.993 57.041 172.706C56.6073 172.569 56.0254 172.284 55.5856 172.403C52.8913 173.156 50.6455 175.044 48.0751 176.152ZM54.9777 173.656C55.3908 173.478 56.0549 173.559 56.1999 173.99C56.6099 175.208 55.2284 176.908 54.8437 178.413C54.7282 178.858 54.3871 179.313 53.9422 179.414C49.7948 180.402 45.7589 181.819 41.5515 182.546C41.1024 182.625 40.9867 182.404 41.3058 182.077C45.0934 178.228 50.0842 175.826 54.9777 173.656ZM156.811 126.083C157.213 126.128 157.532 126.373 157.732 126.699C157.977 127.094 157.649 127.656 157.234 127.845C153.598 129.448 149.501 129.133 145.632 129.812C145.184 129.891 144.485 130.123 144.063 130.295C138.351 132.604 131.956 132.481 125.95 133.819C116.739 136.278 107.034 137.735 98.8186 142.932C90.7158 149.07 82.196 154.726 73.3867 159.825C72.9986 160.052 72.8319 159.898 73.0355 159.492C77.4614 150.576 85.0432 143.646 92.9395 137.732C93.2969 137.461 93.8583 136.987 94.1988 136.683C99.7048 131.794 107.089 130.044 114.092 128.337C114.531 128.23 115.255 128.146 115.713 128.104C119.701 127.717 122.931 124.382 127.072 124.971C130.754 125.618 134.167 123.22 137.859 124.006C144.088 125.709 150.537 125.004 156.811 126.083ZM161.864 81.6228C162.28 81.4313 162.978 81.2527 163.418 81.1585C165.572 80.7206 167.373 79.0825 169.523 78.8817C169.973 78.8379 170.58 79.1767 170.734 79.6009C171.438 81.5306 169.93 83.8459 169.732 85.8529C169.149 91.3833 164.856 95.47 163.708 100.824C163.214 103.915 160.964 106.236 159.759 109.035C157.869 114.485 153.12 118.163 148.926 121.812C147.964 122.532 147.383 124.135 146.222 124.413C145.777 124.515 145.043 124.343 144.589 124.264C141.369 123.738 138.158 122.79 134.88 123.059C134.427 123.095 133.723 123.295 133.282 123.429C128.828 124.843 123.889 123.14 119.723 125.661C119.337 125.903 119.317 125.876 119.66 125.578C130.145 116.341 141.022 107.586 151.883 98.8136C154.937 96.0824 158.474 93.8287 161.012 90.5872C161.3 90.2324 161.225 90.1643 160.878 90.4567C149.47 99.9142 137.775 109.251 126.291 118.718C125.945 119.009 125.919 118.979 126.228 118.648C134.972 109.405 141.241 98.2274 148.689 88.0044C148.962 87.6421 149.462 87.1094 149.836 86.8459C153.416 84.2666 157.894 83.449 161.864 81.6228ZM167.54 54.3357C164.236 63.0021 159.256 70.9493 154.376 78.8146C154.142 79.2012 153.787 79.8496 153.573 80.2489C152.517 82.1966 151.043 83.8765 149.539 85.4943C149.222 85.8233 148.762 86.3931 148.507 86.7699C139.081 100.558 130.318 115.252 117.556 126.244C117.213 126.543 116.575 126.874 116.133 126.984C108.717 128.878 100.744 130.319 94.5775 135.115C94.2201 135.396 93.5678 135.683 93.1152 135.669C90.7129 135.579 88.7554 133.744 87.2466 132.038C86.9411 131.696 86.9729 131.165 87.3089 130.853C88.5437 129.711 89.9 128.493 91.2853 127.528C91.6588 127.267 92.3277 127.156 92.778 127.249C101.22 129.016 110.046 127.44 117.634 123.473C118.035 123.263 117.99 123.078 117.543 123.131C116.013 123.308 114.612 124.018 113.235 124.711C112.826 124.905 112.143 125.181 111.707 125.308C105.779 127.019 99.4652 127.771 93.4016 126.284C92.9604 126.177 92.9327 125.902 93.3113 125.654C96.6153 123.457 98.9811 118.926 103.191 119.197C103.643 119.224 104.374 119.333 104.831 119.351C112.616 119.68 120.096 116.598 126.811 112.887C127.211 112.665 127.801 112.231 128.129 111.913C128.667 111.369 129.178 110.795 129.71 110.246C130.033 109.921 129.996 109.88 129.613 110.13C122.02 115.298 112.737 119.341 103.289 118.548C102.837 118.512 102.733 118.214 103.064 117.898C106.913 114.197 110.94 110.628 115.256 107.493C115.629 107.226 116.293 107.051 116.748 107.082C124.359 107.612 132.397 105.652 137.969 100.245C138.29 99.9228 138.163 99.4761 137.749 99.6639C137.417 99.7951 137.116 100.091 136.812 100.364C136.473 100.671 135.882 101.107 135.52 101.381C130.468 105.228 124.011 106.802 117.728 106.183C117.275 106.136 117.18 105.841 117.512 105.525C121.015 102.199 124.286 98.6345 127.98 95.5074C129.591 94.0935 130.678 91.3539 133.174 91.5027C137.173 91.5618 140.635 89.3821 144.232 87.9076C144.655 87.7341 145.303 87.4027 145.698 87.1622C147.119 86.2839 148.763 85.417 149.578 84.0181C149.808 83.6244 149.636 83.5064 149.281 83.7953C144.81 87.4778 139.213 89.8906 133.461 90.615C133.008 90.6702 132.89 90.432 133.202 90.1004C137.391 85.5779 141.694 81.1446 146.165 76.8977C146.491 76.5823 146.97 76.0265 147.255 75.6743C150.81 71.2929 157.042 69.7215 160.367 65.3102C160.641 64.9486 160.57 64.8882 160.228 65.1864C158.312 66.8101 156.147 68.0829 154.006 69.4003C153.624 69.6374 153.571 69.5784 153.893 69.256C158.678 64.5303 163.258 59.5751 167.335 54.2222C167.607 53.8612 167.705 53.9123 167.54 54.3357ZM166.808 52.0448C167.255 51.9673 167.426 52.2279 167.177 52.6094C160.984 62.2119 152.3 70.1819 143.655 77.6015C143.307 77.8951 143.062 77.769 143.121 77.32C144.237 69.2501 149.585 62.3542 156.017 57.5919C156.384 57.318 156.347 57.2551 155.942 57.4621C148.144 61.399 143.309 69.8209 141.953 78.3432C141.879 78.7938 141.581 79.4261 141.261 79.7527C136.5 84.6015 131.031 88.882 126.149 93.6685C125.824 93.9916 125.633 93.8893 125.726 93.4445C128.156 81.6432 134.007 70.3751 143.219 62.4984C144.332 61.5496 142.848 61.8872 142.343 62.3982C135.458 68.1787 130.669 76.0425 127.464 84.3622C127.303 84.7871 127.085 85.4901 126.972 85.9272C126.18 89.0693 125.283 92.2126 124.121 95.2294C123.957 95.6537 123.55 96.2443 123.214 96.5506C119.131 100.307 115.031 103.951 110.719 107.44C110.367 107.725 110.04 107.588 110.039 107.134C110.022 104.981 110.65 102.81 111.046 100.695C112.98 93.7266 114.685 86.4089 118.908 80.4088C119.169 80.0378 119.582 79.4233 119.827 79.0452C122.302 75.2369 125.771 72.2194 128.781 68.8543C129.085 68.5161 129.024 68.4466 128.655 68.72C116.513 77.726 110.94 93.2049 109.103 107.849C109.048 108.3 108.735 108.917 108.4 109.223C104.538 112.768 100.434 116.103 96.32 119.39C95.9677 119.672 95.7287 119.534 95.7991 119.087C98.0844 103.708 103.326 87.9504 114.261 76.5455C114.576 76.2195 114.529 76.1597 114.168 76.4302C107.292 81.5518 104.065 90.1314 100.421 97.7002C100.224 98.1104 99.9731 98.8007 99.86 99.2428C98.152 105.908 95.6328 112.387 94.8504 119.243C94.804 119.697 94.5766 120.381 94.2991 120.738C92.6982 122.782 90.1572 124.087 88.37 126.051C88.0633 126.388 87.78 126.32 87.7147 125.87C87.3482 123.295 87.3537 120.675 87.9758 118.14C88.0806 117.701 88.2419 116.982 88.3216 116.534C90.1243 105.835 93.244 95.0747 99.6274 86.1611C100.096 85.563 99.7534 85.5891 99.3747 85.8168C98.9849 86.0487 98.581 86.6792 98.3153 87.0486C91.3648 96.738 88.7521 108.743 86.7101 120.296C85.9025 123.205 88.1605 127.31 85.0655 129.012C84.6653 129.232 84.0277 129.092 83.7171 128.771C80.0423 124.991 79.763 119.012 80.841 113.999C80.9402 113.552 81.1605 112.851 81.3198 112.424C83.9267 105.47 86.4339 98.2326 91.2891 92.492C95.5133 87.2975 101.163 83.6354 106.067 79.1605C106.401 78.8539 106.969 78.3873 107.347 78.1348C113.023 74.2608 119.294 71.3949 125.533 68.5499C128.785 66.9379 131.658 64.4512 135.157 63.4146C135.596 63.2812 136.305 63.0772 136.724 62.9063C140.603 61.3359 144.126 58.8854 148.268 57.993C154.746 57.0263 160.377 53.1883 166.808 52.0448ZM68.8078 130.463C71.8675 127.585 76.0436 126.414 78.9584 123.435C79.2821 123.113 79.7498 123.168 79.6739 123.62C79.6131 123.993 79.3891 124.352 79.1111 124.641C75.0263 129.217 72.2534 134.836 67.7842 139.102C62.838 144.144 58.6001 149.979 53.1488 154.486C52.802 154.777 52.6746 154.675 52.8718 154.265C55.8827 148.093 58.6122 141.82 61.0994 135.429C61.266 135.006 61.4797 134.293 61.6938 133.891C63.025 131.391 66.8717 132.54 68.8078 130.463ZM78.6679 118.567C78.992 118.249 79.37 118.334 79.4331 118.78C79.8586 121.728 77.1866 124.368 74.5667 125.562C70.9255 127.2 68.1292 130.782 64.1219 131.511C63.6705 131.589 62.9866 131.346 62.9685 130.889C62.926 130.019 63.7509 128.856 64.2434 127.865C64.4495 127.46 64.8932 126.96 65.315 126.781C70.1271 124.729 74.8953 122.278 78.6679 118.567ZM65.914 125.459C65.486 125.61 65.2465 125.377 65.3972 124.947C66.3823 122.075 67.6502 119.208 69.4805 116.782C69.7483 116.416 70.2814 115.92 70.6543 115.654C74.8327 112.679 79.0182 109.655 82.6234 105.988C82.9431 105.661 83.0417 105.731 82.8634 106.149C81.7278 108.812 80.4196 112.627 79.5933 115.91C79.4819 116.349 79.1542 116.988 78.8476 117.317C75.3456 121.063 70.7073 123.737 65.914 125.459ZM69.8155 138.258C73.5155 134.336 76.0839 129.511 79.6381 125.481C79.9346 125.143 80.4591 125.149 80.5823 125.587C80.9222 126.785 79.7376 127.951 79.0433 128.936C71.7263 138.353 64.2274 147.967 54.4635 154.969C54.0964 155.233 54.0489 155.185 54.372 154.859C59.6696 149.468 64.5929 143.724 69.8155 138.258ZM68.4051 143.341C72.6915 138.292 77.0624 133.299 80.8923 127.894C81.1549 127.522 81.5751 127.525 81.8276 127.9C82.1814 128.427 82.5239 128.964 82.8392 129.509C83.0635 129.907 82.9781 130.508 82.6683 130.835C78.3146 135.423 73.1926 139.204 68.4856 143.419C68.1462 143.723 68.1085 143.687 68.4051 143.341ZM112.249 67.1803C109.785 71.6322 108.405 76.9883 103.983 79.9736C101.603 81.8107 99.5066 84.0388 96.9529 85.6296C96.564 85.8719 96.3468 85.6961 96.4711 85.2585C97.3886 82.1068 98.1981 78.9208 98.55 75.6615C98.5996 75.2073 98.7925 74.5084 99.0031 74.1041C104.005 64.2602 110.602 54.7103 119.028 47.6841C119.376 47.3922 119.969 47.3688 120.271 47.7124C121.707 49.3885 121.277 52.1804 121.661 54.2865C122.71 58.9877 122.792 63.948 121.699 68.6319C121.6 69.0731 121.176 69.602 120.771 69.814C116.988 71.8048 113.198 73.8345 109.435 75.8544C109.03 76.0669 108.812 75.8846 108.967 75.4644C109.982 72.6917 111.832 69.8738 112.492 67.2741C112.607 66.8313 112.468 66.7837 112.249 67.1803ZM159.066 48.7229C158.246 50.8858 157.474 53.4568 155.769 54.9031C155.422 55.196 155.244 55.0423 155.448 54.6357C156.485 52.5718 157.917 50.7343 158.998 48.691C159.211 48.2914 159.226 48.3002 159.066 48.7229ZM160.472 16.6209C161.213 18.6128 162.351 20.4292 163.036 22.436C163.184 22.8655 163.453 23.5538 163.612 23.9792C164.728 26.9689 163.892 30.264 163.144 33.3094C163.035 33.7487 162.9 34.4759 162.84 34.9255C162.499 37.3401 162.022 39.7402 161.282 42.0627C161.138 42.4959 161.07 42.4787 161.129 42.0259C162.236 33.5978 162.047 24.9967 160.371 16.6487C160.285 16.2061 160.311 16.1969 160.472 16.6209ZM157.865 12.7862C157.92 12.3346 158.088 12.3162 158.233 12.7489C160.283 18.8889 160.913 25.5238 161.023 31.9957C160.828 38.458 160.51 45.3721 156.843 50.9277C156.594 51.3091 156.421 51.242 156.462 50.7845C157.179 43.1971 156.09 35.5577 156.675 27.9482C156.707 27.4992 156.621 27.4775 156.49 27.9149C154.165 35.7932 157.078 44.5471 155.432 52.6569C155.343 53.1034 155.138 53.8111 154.919 54.2116C153.523 56.7477 150.362 56.8626 147.673 57.2206C147.224 57.2842 146.88 56.9723 146.93 56.5252C147.308 52.9817 148.591 49.4959 148.941 46.048C148.984 45.5968 148.857 45.5658 148.689 45.9857C147.297 49.5093 146.636 53.2369 146.026 56.9479C145.947 57.3957 145.564 57.9295 145.161 58.1434C143.588 58.96 141.99 59.7575 140.352 60.4346C139.929 60.6065 139.618 60.3725 139.756 59.9374C140.119 58.8129 140.89 57.6377 140.797 56.5852C140.759 56.131 140.405 56.1536 140.246 56.5745C139.644 58.1443 139.107 59.7995 138.094 61.1143C137.814 61.4803 137.215 61.8926 136.792 62.0547C135.068 62.7398 133.246 63.1946 131.618 64.1005C131.219 64.3255 131.161 64.264 131.469 63.9246C136.24 58.7126 141.701 54.0357 145.14 47.7579C145.359 47.3574 145.743 46.7269 146.002 46.3557C152.869 36.467 156.392 24.6419 157.865 12.7862ZM142.478 31.4408C146.108 28.855 150.644 27.7079 154.043 24.7941C154.386 24.499 154.579 24.602 154.483 25.0462C151.548 38.5922 143.23 51.4699 132.985 61.046C130.251 63.9811 127.151 66.8363 123.468 68.4845C123.051 68.6717 122.769 68.4424 122.84 67.9924C123.538 63.5655 123.624 59.0364 122.629 54.6448C122.259 52.8912 121.94 50.8877 123.221 49.4014C128.324 42.2015 134.873 35.9451 142.478 31.4408ZM105.216 53.8287C105.421 53.4263 105.839 52.822 106.108 52.456C109.528 47.7494 110.079 41.4426 114.395 37.2713C119.304 32.3888 122.07 25.4981 127.237 21.0005C127.58 20.6971 128.201 20.6351 128.548 20.9283C130.48 22.5763 130.364 25.9001 131.394 28.1699C132.684 30.5484 133.656 33.229 133.536 35.9557C133.516 36.4119 133.196 37.0263 132.862 37.3401C129.067 40.8953 125.256 44.5496 122.522 49.0202C122.281 49.4093 121.992 49.3743 121.845 48.9441C121.408 47.6373 120.749 46.1328 119.41 46.1498C118.959 46.1605 118.345 46.575 118.016 46.8946C111.058 53.6137 105.015 61.3097 100.275 69.7499C100.056 70.1487 99.987 70.118 100.112 69.6803C101.682 64.3525 102.633 58.7842 105.216 53.8287ZM101.027 45.5287C103.118 48.1969 101.695 51.991 101.377 55.0701C101.276 61.2592 100.282 67.3857 98.1684 73.2044C98.0114 73.6327 97.8349 74.342 97.7702 74.7945C97.1913 79.0005 96.4071 83.2356 94.8228 87.1808C94.6505 87.5985 94.2426 88.2047 93.9276 88.529C90.8167 91.7226 87.9142 95.1252 85.9917 99.1882C83.3312 105.919 77.1744 110.297 71.3236 114.186C70.9424 114.44 70.8148 114.317 71.0209 113.92C73.926 108.413 75.8827 102.461 78.7819 96.956C78.989 96.5539 79.4777 96.0293 79.8573 95.7761C83.822 93.0631 87.068 89.4626 90.4152 86.0296C90.7374 85.7049 91.2238 85.1513 91.4998 84.7926C93.7642 81.9182 96.3918 78.7559 96.9407 75.1964C97.0122 74.749 96.8836 74.7178 96.6915 75.1283C93.121 82.8255 87.2626 89.6233 80.2881 94.3532C79.9109 94.6071 79.744 94.4635 79.9302 94.0505C81.7672 89.8802 84.3722 86.0898 85.7122 81.7134C85.8437 81.2765 86.1419 80.6126 86.3445 80.2023C87.4823 77.9008 87.6255 74.9522 89.6336 73.3019C89.984 73.013 90.5245 72.5342 90.8275 72.195C92.6111 70.2092 95.3318 69.1365 96.6102 66.7376C96.8279 66.3407 96.6228 66.173 96.2871 66.4798C95.5528 67.1573 94.9584 68.0821 94.1525 68.7375C93.8009 69.0255 93.6647 68.8798 93.9003 68.4925C96.3475 64.5246 98.4977 60.3389 99.9224 55.9122C100.062 55.4852 99.9882 55.4518 99.7724 55.8502C96.6571 61.597 94.4262 68.092 89.5072 72.6059C89.1716 72.9138 89.0309 72.8113 89.208 72.3923C92.9247 63.5166 96.0831 54.4109 100.119 45.673C100.311 45.2603 100.747 45.1716 101.027 45.5287ZM81.4242 60.529C85.9751 54.3353 92.3156 49.8117 98.3751 45.2106C98.7367 44.935 99.3881 44.9804 99.3223 45.4292C99.3065 45.5783 99.2527 45.7354 99.191 45.8876C99.0269 46.3086 98.7353 46.9842 98.5515 47.403C96.4902 52.1087 94.5948 56.8925 92.5904 61.6229C92.4187 62.041 92.2098 62.016 92.1651 61.5671C91.7442 57.3878 93.2518 53.2158 94.6273 49.4531C94.7845 49.0258 94.6574 48.9501 94.3865 49.3175C92.5242 51.8306 91.5589 56.0577 91.3296 59.6115C91.2994 60.0658 91.348 60.798 91.3812 61.2518C91.7262 65.9535 89.0096 70.2212 87.0048 74.3083C85.4879 78.2502 83.4906 81.9899 81.9805 85.937C81.8173 86.3607 81.6409 86.3427 81.588 85.8905C80.338 75.3807 81.9918 64.3847 87.4818 55.2301C87.7167 54.8412 87.6729 54.8092 87.3883 55.1652C80.3682 64.0358 80.1656 76.2231 80.834 87.0982C80.8595 87.5519 80.7617 88.2674 80.5939 88.6895C78.2706 94.5356 74.1399 99.5526 71.7019 105.384C71.5299 105.804 71.3422 105.784 71.2895 105.333C70.229 96.712 71.4357 88.0325 72.6219 79.4829C73.2189 75.7019 75.5357 71.8565 76.317 68.432C76.4186 67.991 76.28 67.9434 76.0579 68.3321C70.7434 77.6612 70.7618 88.7033 70.0462 99.1216C69.8564 102.506 71.5217 106.21 69.9757 109.369C69.773 109.778 69.4302 110.424 69.2572 110.844C67.9225 114.102 66.1927 117.172 64.7596 120.388C64.5751 120.806 64.3561 120.787 64.2659 120.337C61.7551 107.939 61.7249 94.6613 66.011 82.6799C66.1646 82.2549 66.1052 82.2245 65.8872 82.6231C61.233 91.1751 61.7191 101.334 62.1182 110.776C61.9782 114.444 63.0731 117.973 63.5885 121.575C63.6579 122.024 63.5746 122.739 63.3885 123.154C62.777 124.564 61.9042 125.863 61.131 127.207C60.9029 127.604 60.5912 127.587 60.4219 127.163C57.5584 119.844 56.9436 111.88 57.0803 104.101C57.0892 103.644 57.017 103.637 56.9316 104.084C55.3794 112.054 57.1879 120.346 59.6812 127.994C59.8198 128.423 59.8204 129.12 59.6772 129.551C59.4478 130.202 59.2202 130.854 58.9856 131.507C58.6546 130.985 58.0934 130.367 57.9067 130.141C55.5362 127.17 54.4382 123.365 54.4146 119.577C54.4124 119.123 54.3443 118.395 54.2637 117.946C53.4466 113.276 54.5958 108.556 55.7345 104.026C58.9405 94.9884 61.8958 85.538 68.0533 77.9995C68.3407 77.6475 68.7911 77.0647 69.0509 76.6928C72.9185 71.122 77.2673 65.8898 81.4242 60.529ZM35.9894 99.0143C36.149 95.3884 37.176 91.852 37.5079 88.237C37.5514 87.7869 37.6758 87.7723 37.7593 88.2186C38.4865 91.8913 37.1479 95.4861 36.18 99.043C36.0621 99.4825 35.9658 99.4726 35.9894 99.0143ZM35.9142 121.995C35.2776 115.818 35.439 109.56 35.6734 103.364C35.6919 102.908 35.8478 102.198 36.0091 101.773C37.0304 99.1215 37.7448 96.3564 38.3796 93.5863C38.48 93.1443 38.6616 93.1401 38.7681 93.5804C41.1334 103.042 39.6954 113.003 36.2987 122.044C36.1398 122.466 35.9632 122.448 35.9142 121.995ZM38.5428 137.964C38.0321 132.454 35.3456 126.792 37.34 121.413C37.4984 120.983 37.7666 120.297 37.8971 119.862C38.8182 116.751 39.4691 113.561 40.395 110.465C40.5221 110.025 40.6921 110.04 40.7702 110.487C41.8848 116.821 44.0684 123.297 42.077 129.679C41.0691 132.474 40.6432 135.552 39.0586 138.103C38.8228 138.489 38.5853 138.413 38.5428 137.964ZM39.1677 148.463C39.1779 145.268 37.8166 141.817 39.536 138.971C39.7693 138.579 40.1441 137.954 40.3 137.526C41.3189 134.802 42.2078 132.024 43.0684 129.242C43.2027 128.806 43.297 128.825 43.2909 129.278C43.2009 134.296 43.5471 139.599 41.0513 144.139C40.3246 145.531 40.0962 147.112 39.488 148.546C39.3132 148.966 39.171 148.92 39.1677 148.463ZM27.6824 180.187C27.8882 179.252 28.2417 178.342 29.0342 177.753C32.7143 174.617 34.4791 170.023 36.6244 165.83C38.6063 162.051 40.0816 157.837 39.917 153.511C39.5442 148.255 43.0008 143.777 43.7258 138.714C44.4464 123.135 46.2333 107.603 47.6467 92.0698C49.1506 83.7081 49.7364 75.1148 52.3937 67.022C52.5342 66.5899 52.4882 66.5725 52.2949 66.9783C48.9743 73.9548 48.7425 81.9554 47.4296 89.4733C45.7439 100.645 45.2871 111.968 43.98 123.201C43.9278 123.652 43.9173 123.652 43.9117 123.199C43.8878 120.673 42.934 118.287 42.5031 115.809C42.4236 115.36 42.2933 114.637 42.2005 114.188C40.6336 106.931 40.9087 99.4604 39.3671 92.2032C39.2736 91.7561 39.0615 91.0527 38.935 90.6146C37.5322 85.8996 38.6667 80.946 39.9751 76.3101C40.099 75.8703 40.2685 75.1547 40.364 74.709C41.6105 68.9633 44.869 63.9494 46.4381 58.2925C47.5429 53.9002 51.5173 51.0744 53.0876 46.9207C53.2443 46.4979 53.5222 45.8148 53.7341 45.4164C54.5924 43.7861 55.5325 41.9821 56.7901 40.7896C57.1156 40.4771 57.767 40.4147 58.1088 40.7169C59.5506 41.9873 59.4081 44.4565 60.0596 46.1924C62.4733 52.9209 63.6057 59.9765 66.0209 66.708C67.1337 70.5482 66.5801 74.6143 66.0361 78.4907C65.9726 78.948 65.7142 79.6129 65.4652 79.9949C60.9334 86.8713 58.4216 94.7755 55.4185 102.392C55.2517 102.813 55.0142 103.513 54.9025 103.953C52.6413 112.595 52.1196 122.478 56.7552 130.356C56.9825 130.748 57.1362 131.42 57.0617 131.87C56.1745 137.077 53.5935 141.99 50.0825 145.922C47.9162 148.763 44.4221 150.935 43.8414 154.655C43.7724 155.108 43.6186 155.818 43.4514 156.241C41.274 161.618 39.5845 167.276 36.5682 172.248C36.3359 172.639 35.8694 173.201 35.5341 173.511C33.0938 175.838 30.7689 178.341 28.1662 180.481C27.8174 180.77 27.5833 180.635 27.6824 180.187ZM58.4311 133.057C54.9803 142.571 50.8076 152.108 45.766 160.984C45.5407 161.378 45.1062 161.972 44.8294 162.337C43.0934 164.602 42.1394 167.59 39.7808 169.23C39.4041 169.488 39.2103 169.309 39.3787 168.888C41.5027 163.551 43.7265 158.222 45.48 152.79C45.6253 152.357 45.9975 151.748 46.3205 151.426C51.454 146.293 56.0462 140.269 57.9318 133.284C58.0024 133.033 58.1982 133.07 58.4311 133.057ZM52.2977 182.624C43.2087 184.966 35.6012 190.816 26.7079 193.656C26.2741 193.798 25.6128 194.106 25.249 194.374C21.1323 197.452 18.4081 202.463 14.2613 205.332C13.8888 205.593 13.5423 205.416 13.4831 204.962C13.186 202.756 12.4661 200.241 13.0805 197.984C13.1999 197.544 13.528 196.88 13.7782 196.502C15.1304 194.433 17.0432 192.784 18.7067 190.956C19.0138 190.621 19.5575 190.131 19.9061 189.849C23.0252 187.362 25.0092 183.701 28.3617 181.48C28.7398 181.231 29.3208 180.786 29.6402 180.461C35.5571 174.503 42.2425 169.219 46.3806 161.755C51.3991 152.875 55.8943 143.576 58.8846 133.805C59.0183 133.376 59.3022 132.696 59.5213 132.298C65.2583 121.831 69.8066 110.764 75.1872 100.13C75.3901 99.7219 75.7665 99.0842 76.0075 98.7C80.8 91.1837 83.9512 82.8163 87.6122 74.7326C87.8018 74.3163 87.8484 74.3341 87.716 74.7684C84.8685 83.9055 79.3318 93.0705 75.565 102.265C73.169 108.442 70.2017 114.383 66.7276 120.024C66.4906 120.409 66.1382 121.057 65.9544 121.471C61.1384 132.151 57.4183 143.28 52.192 153.772C51.9874 154.18 51.6029 154.812 51.4543 155.241C50.9753 156.623 51.2235 158.49 53.0009 157.163C67.2843 146.417 80.3057 134.092 93.786 122.399C108.709 110.933 122.492 98.242 136.303 85.4942C136.634 85.1882 136.751 85.2763 136.462 85.6301C135.649 86.6156 134.022 87.9463 133.104 88.9575C117.721 105.749 99.2234 119.112 82.1586 134.072C74.7018 139.926 68.6619 147.341 61.3923 153.417C61.0464 153.706 60.5062 154.206 60.1868 154.531C52.9381 161.987 44.7612 168.601 38.6752 177.111C38.4079 177.481 37.8957 178.031 37.7251 178.449C37.4556 179.121 37.5938 179.914 38.1823 180.039C38.6223 180.137 39.2844 179.695 39.6643 179.44C51.3603 171.582 63.0781 163.501 72.9198 153.35C73.2401 153.024 73.6296 152.413 73.7925 151.987C76.4526 144.944 78.4999 136.956 85.0802 132.577C85.4578 132.325 86.0484 132.39 86.3769 132.704C88.0252 134.308 89.5664 136.151 91.9219 136.517C92.3705 136.586 92.4498 136.81 92.0963 137.088C85.6017 142.22 79.252 147.659 74.5094 154.48C74.2455 154.851 73.743 155.372 73.3674 155.634C64.2366 162.081 55.6222 169.314 46.5607 175.902C46.1911 176.171 45.6276 176.647 45.2891 176.946C43.2932 178.688 40.8531 179.995 39.4244 182.266C39.1849 182.653 39.0655 183.42 39.452 183.662C39.9143 183.952 40.6432 183.819 41.2988 183.681C41.7442 183.587 42.4615 183.435 42.8993 183.311C52.3071 180.759 62.0079 178.937 70.8701 174.728C71.2779 174.535 71.9197 174.173 72.3184 173.954C75.5229 172.166 79.2342 171.49 82.502 169.823C92.3218 164.134 103.548 161.485 113.319 155.706C113.708 155.474 114.36 155.126 114.765 154.923C117.172 153.74 119.484 152.364 121.935 151.303C122.353 151.121 122.381 151.174 121.985 151.403C105.168 161.305 87.5571 169.744 69.648 177.46C69.2301 177.641 68.5295 177.849 68.0845 177.938C62.6761 179.012 57.6439 181.336 52.2977 182.624ZM77.9752 138.988C75.8612 142.551 74.6386 147.996 72.4903 152.111C72.2851 152.514 71.8448 153.098 71.5272 153.428C62.0269 163.242 50.4969 170.551 39.4376 178.413C39.0642 178.678 38.9599 178.58 39.204 178.194C42.2416 173.487 45.9001 169.17 50.1458 165.506C59.1608 156.389 68.786 147.944 77.8324 138.878C78.1561 138.556 78.2061 138.594 77.9752 138.988ZM106.473 177.987C106.035 178.104 105.305 178.224 104.856 178.291C100.656 178.933 96.7837 180.976 92.5981 181.753C92.1479 181.836 91.412 181.898 90.9618 181.929C84.2897 182.403 77.7599 185.742 71.1207 183.709C70.6814 183.572 70.0254 183.247 69.6301 183.025C67.6078 181.878 65.4076 181.055 63.1557 180.453C62.7149 180.333 62.7176 180.19 63.1695 180.103C72.0729 178.409 79.8041 173.469 88.0968 170.03C88.518 169.858 89.1785 169.536 89.5829 169.322C93.7299 167.146 98.5597 167.211 103.12 166.759C109.737 165.794 116.446 165.271 123.069 164.439C123.52 164.382 123.515 164.323 123.054 164.317C114.176 164.22 105.378 166.03 96.5038 166.505C96.0479 166.531 96.0075 166.379 96.4104 166.167C101.86 163.32 107.314 160.429 112.783 157.608C113.191 157.402 113.87 157.12 114.318 157.053C117.416 156.573 120.26 158.636 123.073 159.829C123.493 160.004 124.208 160.174 124.659 160.245C126.669 160.549 128.657 161.037 130.616 161.627C131.224 161.875 131.805 162.171 132.367 162.518C132.751 162.754 132.909 163.315 132.662 163.692C131.027 166.189 127.483 166.605 125.141 168.33C119.506 172.576 113.331 176.189 106.473 177.987Z" fill="white"/>
</g>
<defs>
<linearGradient id="paint0_linear_12_505" x1="89.8365" y1="83.528" x2="89.8365" y2="152.298" gradientUnits="userSpaceOnUse">
<stop stop-color="#B745C7"/>
<stop offset="1" stop-color="#75AB32"/>
</linearGradient>
<linearGradient id="paint1_linear_12_505" x1="89.8365" y1="83.528" x2="89.8365" y2="152.298" gradientUnits="userSpaceOnUse">
<stop stop-color="#B745C7"/>
<stop offset="1" stop-color="#75AB32"/>
</linearGradient>
<linearGradient id="paint2_linear_12_505" x1="89.8365" y1="83.528" x2="89.8365" y2="152.298" gradientUnits="userSpaceOnUse">
<stop stop-color="#B745C7"/>
<stop offset="1" stop-color="#75AB32"/>
</linearGradient>
<linearGradient id="paint3_linear_12_505" x1="89.8365" y1="83.528" x2="89.8365" y2="152.298" gradientUnits="userSpaceOnUse">
<stop stop-color="#B745C7"/>
<stop offset="1" stop-color="#75AB32"/>
</linearGradient>
</defs>
</svg>
